<?xml version="1.0" encoding="UTF-8"?>
<!DOCTYPE svg PUBLIC "-//W3C//DTD SVG 1.1//EN" "http://www.w3.org/Graphics/SVG/1.1/DTD/svg11.dtd">
<svg xmlns="http://www.w3.org/2000/svg" version="1.1" width="2000px" height="420px" style="shape-rendering:geometricPrecision; text-rendering:geometricPrecision; image-rendering:optimizeQuality; fill-rule:evenodd; clip-rule:evenodd" xmlns:xlink="http://www.w3.org/1999/xlink">
<g><path style="opacity:0.999" fill="#0074d9" d="M 999.5,2.5 C 999.5,32.1667 999.5,61.8333 999.5,91.5C 992.119,91.3143 984.786,91.8143 977.5,93C 977,93.5 976.5,94 976,94.5C 975.333,155.833 975.333,217.167 976,278.5C 976.75,279.126 977.584,279.626 978.5,280C 985.492,280.5 992.492,280.666 999.5,280.5C 999.5,325.833 999.5,371.167 999.5,416.5C 696.471,416.996 393.471,416.496 90.5,415C 49.8067,402.299 26.3067,374.799 20,332.5C 19.3333,250.5 19.3333,168.5 20,86.5C 26.3382,44.1731 49.8382,16.6731 90.5,4C 393.471,2.50445 696.471,2.00445 999.5,2.5 Z"/></g>
<g><path style="opacity:1" fill="#39cccc" d="M 999.5,2.5 C 1302.53,2.00445 1605.53,2.50445 1908.5,4C 1949.19,16.7008 1972.69,44.2008 1979,86.5C 1979.67,168.5 1979.67,250.5 1979,332.5C 1972.69,374.799 1949.19,402.299 1908.5,415C 1605.53,416.496 1302.53,416.996 999.5,416.5C 999.5,371.167 999.5,325.833 999.5,280.5C 1007,280.963 1014.33,280.296 1021.5,278.5C 1022.17,259.833 1022.83,241.167 1023.5,222.5C 1031.69,241.048 1040.02,259.548 1048.5,278C 1056.02,279.857 1063.68,280.691 1071.5,280.5C 1080.18,280.237 1088.85,279.737 1097.5,279C 1099.26,278.798 1100.92,278.298 1102.5,277.5C 1089.48,252.797 1076.48,228.13 1063.5,203.5C 1074.44,184.456 1085.77,165.622 1097.5,147C 1094.9,146.08 1092.23,145.413 1089.5,145C 1077.83,144.333 1066.17,144.333 1054.5,145C 1052.75,145.471 1051.09,146.138 1049.5,147C 1040.69,162.78 1032.03,178.614 1023.5,194.5C 1022.83,161.167 1022.17,127.833 1021.5,94.5C 1021.08,93.7784 1020.42,93.2784 1019.5,93C 1012.85,92.1686 1006.19,91.6686 999.5,91.5C 999.5,61.8333 999.5,32.1667 999.5,2.5 Z"/></g>
<g><path style="opacity:1" fill="#fefefe" d="M 999.5,91.5 C 1006.19,91.6686 1012.85,92.1686 1019.5,93C 1020.42,93.2784 1021.08,93.7784 1021.5,94.5C 1021.33,128.502 1021.5,162.502 1022,196.5C 1022.72,195.956 1023.22,195.289 1023.5,194.5C 1032.03,178.614 1040.69,162.78 1049.5,147C 1051.09,146.138 1052.75,145.471 1054.5,145C 1066.17,144.333 1077.83,144.333 1089.5,145C 1092.23,145.413 1094.9,146.08 1097.5,147C 1085.77,165.622 1074.44,184.456 1063.5,203.5C 1076.48,228.13 1089.48,252.797 1102.5,277.5C 1100.92,278.298 1099.26,278.798 1097.5,279C 1088.85,279.737 1080.18,280.237 1071.5,280.5C 1063.68,280.691 1056.02,279.857 1048.5,278C 1040.02,259.548 1031.69,241.048 1023.5,222.5C 1023.01,221.527 1022.51,220.527 1022,219.5C 1021.5,239.164 1021.33,258.831 1021.5,278.5C 1014.33,280.296 1007,280.963 999.5,280.5C 992.492,280.666 985.492,280.5 978.5,280C 977.584,279.626 976.75,279.126 976,278.5C 975.333,217.167 975.333,155.833 976,94.5C 976.5,94 977,93.5 977.5,93C 984.786,91.8143 992.119,91.3143 999.5,91.5 Z"/></g>
<g><path style="opacity:1" fill="#fdfefe" d="M 1119.5,91.5 C 1134.5,91.3334 1149.5,91.5001 1164.5,92C 1165.66,105.091 1165.82,118.258 1165,131.5C 1148.91,133.679 1132.75,134.012 1116.5,132.5C 1116.33,119.496 1116.5,106.496 1117,93.5C 1117.99,92.9341 1118.83,92.2674 1119.5,91.5 Z"/></g>
<g><path style="opacity:1" fill="#fefefe" d="M 1232.5,91.5 C 1250.18,89.3893 1267.01,92.056 1283,99.5C 1283.62,110.322 1280.95,120.322 1275,129.5C 1273.98,130.687 1272.81,131.687 1271.5,132.5C 1263.69,127.544 1255.36,126.377 1246.5,129C 1243.05,134.265 1241.71,140.099 1242.5,146.5C 1250.51,146.334 1258.51,146.5 1266.5,147C 1267.46,148.419 1268.29,149.919 1269,151.5C 1269.67,158.833 1269.67,166.167 1269,173.5C 1268.66,177.009 1267.16,179.842 1264.5,182C 1258.51,182.499 1252.51,182.666 1246.5,182.5C 1246.5,214.167 1246.5,245.833 1246.5,277.5C 1232.92,279.503 1219.25,280.003 1205.5,279C 1203.32,278.837 1201.49,278.004 1200,276.5C 1199.5,244.835 1199.33,213.168 1199.5,181.5C 1194.57,181.803 1189.74,181.469 1185,180.5C 1182.98,175.222 1182.15,169.722 1182.5,164C 1182.15,158.278 1182.98,152.778 1185,147.5C 1189.74,146.531 1194.57,146.197 1199.5,146.5C 1198.58,132.481 1201.08,119.148 1207,106.5C 1213.82,98.4166 1222.32,93.4166 1232.5,91.5 Z"/></g>
<g><path style="opacity:1" fill="#fdfefe" d="M 704.5,141.5 C 693.833,141.5 683.167,141.5 672.5,141.5C 672.5,186.167 672.5,230.833 672.5,275.5C 670.11,278.028 667.11,279.528 663.5,280C 652.167,280.667 640.833,280.667 629.5,280C 625.961,279.813 622.795,278.646 620,276.5C 619.5,231.501 619.333,186.501 619.5,141.5C 608.495,141.667 597.495,141.5 586.5,141C 585.667,140.167 584.833,139.333 584,138.5C 579.446,124.456 579.446,110.456 584,96.5C 584.833,95.6667 585.667,94.8333 586.5,94C 626.167,93.3333 665.833,93.3333 705.5,94C 707.936,96.7066 709.436,99.8733 710,103.5C 710.844,114.211 710.511,124.878 709,135.5C 708.208,138.106 706.708,140.106 704.5,141.5 Z"/></g>
<g><path style="opacity:1" fill="#b0eaea" d="M 1021.5,94.5 C 1022.17,127.833 1022.83,161.167 1023.5,194.5C 1023.22,195.289 1022.72,195.956 1022,196.5C 1021.5,162.502 1021.33,128.502 1021.5,94.5 Z"/></g>
<g><path style="opacity:1" fill="#1f84dd" d="M 704.5,141.5 C 694.347,142.494 684.014,142.828 673.5,142.5C 673.832,187.003 673.499,231.336 672.5,275.5C 672.5,230.833 672.5,186.167 672.5,141.5C 683.167,141.5 693.833,141.5 704.5,141.5 Z"/></g>
<g><path style="opacity:1" fill="#fdfdfe" d="M 755.5,192.5 C 762.5,192.5 769.5,192.5 776.5,192.5C 776.81,189.287 776.477,186.287 775.5,183.5C 774.781,181.112 773.115,179.612 770.5,179C 767.833,178.833 765.167,178.667 762.5,178.5C 753.093,179.535 743.76,180.702 734.5,182C 729.241,173.896 727.074,165.063 728,155.5C 728.583,153.998 729.416,152.665 730.5,151.5C 739.624,146.969 749.29,144.469 759.5,144C 773.922,142.405 787.922,144.072 801.5,149C 812.749,155.602 819.249,165.435 821,178.5C 821.5,197.164 821.667,215.83 821.5,234.5C 831.562,231.744 837.729,235.41 840,245.5C 841.465,256.508 839.465,266.841 834,276.5C 830.815,280.508 826.649,282.508 821.5,282.5C 809.55,282.194 800.216,277.194 793.5,267.5C 780.957,279.523 765.957,284.356 748.5,282C 726.322,276.823 713.489,262.989 710,240.5C 708.822,209.175 723.989,193.175 755.5,192.5 Z"/></g>
<g><path style="opacity:1" fill="#fdfefe" d="M 890.5,144.5 C 902.171,144.333 913.838,144.5 925.5,145C 930.934,145.966 936.268,147.299 941.5,149C 945.51,150.343 949.01,152.509 952,155.5C 952.217,166.575 948.384,176.075 940.5,184C 932.606,181.378 924.439,179.545 916,178.5C 906.706,179.307 905.206,183.141 911.5,190C 924.2,195.43 936.034,202.264 947,210.5C 955.884,220.169 958.884,231.502 956,244.5C 949.578,267.992 934.078,280.492 909.5,282C 890.043,284.173 872.043,280.173 855.5,270C 850.178,262.945 849.011,255.112 852,246.5C 854.12,241.758 856.62,237.258 859.5,233C 860.833,232.333 862.167,232.333 863.5,233C 874.057,240.459 885.724,244.125 898.5,244C 904.788,241.47 905.121,238.137 899.5,234C 885.692,229.022 873.859,221.189 864,210.5C 847.664,178.192 856.498,156.192 890.5,144.5 Z"/></g>
<g><path style="opacity:1" fill="#fefefe" d="M 1282.5,145.5 C 1297.88,145.082 1313.22,145.582 1328.5,147C 1335.39,167.684 1341.89,188.518 1348,209.5C 1354.21,188.36 1360.71,167.36 1367.5,146.5C 1381.45,145.351 1395.45,145.184 1409.5,146C 1411.76,146.236 1413.93,146.736 1416,147.5C 1395.99,207.529 1375.16,267.362 1353.5,327C 1339.5,327.667 1325.5,327.667 1311.5,327C 1308.57,326.782 1305.74,326.282 1303,325.5C 1302.33,324.167 1302.33,322.833 1303,321.5C 1310.66,304.028 1317.82,286.361 1324.5,268.5C 1309.91,228.159 1294.91,187.993 1279.5,148C 1280.57,147.148 1281.57,146.315 1282.5,145.5 Z"/></g>
<g><path style="opacity:1" fill="#fdfefe" d="M 1124.5,145.5 C 1135.84,145.333 1147.17,145.5 1158.5,146C 1160.76,146.236 1162.93,146.736 1165,147.5C 1165.5,191.165 1165.67,234.832 1165.5,278.5C 1149.29,279.798 1133.12,279.798 1117,278.5C 1116.33,234.833 1116.33,191.167 1117,147.5C 1119.61,146.877 1122.11,146.21 1124.5,145.5 Z"/></g>
<g><path style="opacity:1" fill="#4397e2" d="M 775.5,183.5 C 776.477,186.287 776.81,189.287 776.5,192.5C 769.5,192.5 762.5,192.5 755.5,192.5C 761.979,191.509 768.646,191.176 775.5,191.5C 775.5,188.833 775.5,186.167 775.5,183.5 Z"/></g>
<g><path style="opacity:1" fill="#0d76d9" d="M 763.5,219.5 C 767.833,219.5 772.167,219.5 776.5,219.5C 776.666,226.508 776.5,233.508 776,240.5C 760.975,246.821 754.641,241.821 757,225.5C 758.914,223.144 761.081,221.144 763.5,219.5 Z"/></g>
<g><path style="opacity:1" fill="#79dcdc" d="M 1023.5,222.5 C 1022.83,241.167 1022.17,259.833 1021.5,278.5C 1021.33,258.831 1021.5,239.164 1022,219.5C 1022.51,220.527 1023.01,221.527 1023.5,222.5 Z"/></g>
</svg>
