<?xml version="1.0" encoding="UTF-8"?>
<!DOCTYPE svg PUBLIC "-//W3C//DTD SVG 1.1//EN" "http://www.w3.org/Graphics/SVG/1.1/DTD/svg11.dtd">
<svg xmlns="http://www.w3.org/2000/svg" version="1.1" width="2000px" height="1500px" style="shape-rendering:geometricPrecision; text-rendering:geometricPrecision; image-rendering:optimizeQuality; fill-rule:evenodd; clip-rule:evenodd" xmlns:xlink="http://www.w3.org/1999/xlink">
<g><path style="opacity:1" fill="#fefefe" d="M -0.5,-0.5 C 666.167,-0.5 1332.83,-0.5 1999.5,-0.5C 1999.5,499.5 1999.5,999.5 1999.5,1499.5C 1332.83,1499.5 666.167,1499.5 -0.5,1499.5C -0.5,999.5 -0.5,499.5 -0.5,-0.5 Z"/></g>
<g><path style="opacity:1" fill="#0274d9" d="M 999.5,593.5 C 999.5,615.833 999.5,638.167 999.5,660.5C 994.489,660.334 989.489,660.501 984.5,661C 983.584,661.374 982.75,661.874 982,662.5C 981.167,708.837 981.333,755.17 982.5,801.5C 988.104,802.454 993.771,802.788 999.5,802.5C 999.5,836.5 999.5,870.5 999.5,904.5C 774.166,904.667 548.833,904.5 323.5,904C 289.385,895.88 269.885,874.38 265,839.5C 264.333,778.167 264.333,716.833 265,655.5C 271.238,622.264 290.738,601.764 323.5,594C 548.833,593.5 774.166,593.333 999.5,593.5 Z"/></g>
<g><path style="opacity:1" fill="#3acccc" d="M 999.5,593.5 C 1226.53,593.005 1453.53,593.505 1680.5,595C 1710.66,604.164 1728.49,624.331 1734,655.5C 1734.67,716.167 1734.67,776.833 1734,837.5C 1731.23,865.583 1717.39,886.083 1692.5,899C 1688.5,900.333 1684.5,901.667 1680.5,903C 1453.52,904.492 1226.52,904.992 999.5,904.5C 999.5,870.5 999.5,836.5 999.5,802.5C 1003.85,802.666 1008.18,802.499 1012.5,802C 1013.74,801.768 1014.74,801.268 1015.5,800.5C 1016.17,786.167 1016.83,771.833 1017.5,757.5C 1023.55,771.938 1029.88,786.271 1036.5,800.5C 1049.45,801.647 1062.45,801.814 1075.5,801C 1075.96,800.586 1076.29,800.086 1076.5,799.5C 1066.44,781.221 1056.78,762.721 1047.5,744C 1055.95,730.266 1064.29,716.433 1072.5,702.5C 1071.97,701.808 1071.31,701.308 1070.5,701C 1065.33,700.833 1060.17,700.667 1055,700.5C 1049.06,700.377 1043.23,700.877 1037.5,702C 1030.54,714.086 1023.71,726.252 1017,738.5C 1016.67,713.167 1016.33,687.833 1016,662.5C 1010.61,661.223 1005.11,660.556 999.5,660.5C 999.5,638.167 999.5,615.833 999.5,593.5 Z"/></g>
<g><path style="opacity:1" fill="#fefefe" d="M 999.5,660.5 C 1005.11,660.556 1010.61,661.223 1016,662.5C 1016.33,687.833 1016.67,713.167 1017,738.5C 1023.71,726.252 1030.54,714.086 1037.5,702C 1043.23,700.877 1049.06,700.377 1055,700.5C 1060.17,700.667 1065.33,700.833 1070.5,701C 1071.31,701.308 1071.97,701.808 1072.5,702.5C 1064.29,716.433 1055.95,730.266 1047.5,744C 1056.78,762.721 1066.44,781.221 1076.5,799.5C 1076.29,800.086 1075.96,800.586 1075.5,801C 1062.45,801.814 1049.45,801.647 1036.5,800.5C 1029.88,786.271 1023.55,771.938 1017.5,757.5C 1017.44,756.957 1017.11,756.624 1016.5,756.5C 1015.5,771.152 1015.17,785.818 1015.5,800.5C 1014.74,801.268 1013.74,801.768 1012.5,802C 1008.18,802.499 1003.85,802.666 999.5,802.5C 993.771,802.788 988.104,802.454 982.5,801.5C 981.333,755.17 981.167,708.837 982,662.5C 982.75,661.874 983.584,661.374 984.5,661C 989.489,660.501 994.489,660.334 999.5,660.5 Z"/></g>
<g><path style="opacity:1" fill="#fefefe" d="M 1088.5,660.5 C 1100.17,660.5 1111.83,660.5 1123.5,660.5C 1123.5,670.833 1123.5,681.167 1123.5,691.5C 1111.5,691.5 1099.5,691.5 1087.5,691.5C 1087.19,681.085 1087.53,670.751 1088.5,660.5 Z"/></g>
<g><path style="opacity:1" fill="#fdfefe" d="M 1172.5,660.5 C 1179.84,660.334 1187.17,660.5 1194.5,661C 1200.67,661.836 1206.51,663.669 1212,666.5C 1212.45,675.991 1209.61,684.324 1203.5,691.5C 1198.02,687.914 1192.02,686.748 1185.5,688C 1182.26,691.894 1180.93,696.394 1181.5,701.5C 1187.51,701.334 1193.51,701.501 1199.5,702C 1200.13,702.75 1200.63,703.584 1201,704.5C 1201.93,711.94 1201.59,719.274 1200,726.5C 1199.5,727 1199,727.5 1198.5,728C 1193.85,728.499 1189.18,728.666 1184.5,728.5C 1184.67,752.169 1184.5,775.836 1184,799.5C 1172.66,802.097 1161.33,802.097 1150,799.5C 1149.5,775.836 1149.33,752.169 1149.5,728.5C 1146.15,728.665 1142.82,728.498 1139.5,728C 1139,727.5 1138.5,727 1138,726.5C 1136.56,719.89 1136.23,713.224 1137,706.5C 1137.27,704.671 1138.11,703.171 1139.5,702C 1142.82,701.502 1146.15,701.335 1149.5,701.5C 1148.46,690.47 1150.62,680.137 1156,670.5C 1160.71,665.732 1166.21,662.399 1172.5,660.5 Z"/></g>
<g><path style="opacity:1" fill="#fbfcfe" d="M 689.5,661.5 C 719.169,661.333 748.835,661.5 778.5,662C 780.487,663.319 781.654,665.152 782,667.5C 782.667,675.5 782.667,683.5 782,691.5C 781.484,694.034 780.317,696.2 778.5,698C 770.507,698.5 762.507,698.666 754.5,698.5C 754.667,732.168 754.5,765.835 754,799.5C 747.24,801.885 740.24,802.885 733,802.5C 729.167,802.333 725.333,802.167 721.5,802C 719.22,801.767 717.22,800.934 715.5,799.5C 714.5,765.84 714.167,732.173 714.5,698.5C 705.915,698.817 697.415,698.483 689,697.5C 686.114,691.863 684.948,685.863 685.5,679.5C 684.784,672.993 686.117,666.993 689.5,661.5 Z"/></g>
<g><path style="opacity:1" fill="#fcfdfe" d="M 813.5,736.5 C 819.833,736.5 826.167,736.5 832.5,736.5C 832.802,733.941 832.468,731.607 831.5,729.5C 831.047,728.542 830.381,727.708 829.5,727C 826.167,726.833 822.833,726.667 819.5,726.5C 813.082,726.636 806.749,727.136 800.5,728C 796.551,721.705 795.051,714.871 796,707.5C 800.172,703.993 805.006,701.826 810.5,701C 823.689,698.529 836.689,699.196 849.5,703C 859.074,708.286 864.574,716.453 866,727.5C 866.5,740.829 866.667,754.163 866.5,767.5C 874.148,765.901 878.648,768.901 880,776.5C 881.34,786.146 878.84,794.646 872.5,802C 861.113,805.426 851.946,802.259 845,792.5C 835.005,801.906 823.172,805.406 809.5,803C 788.26,795.702 779.427,780.869 783,758.5C 788.277,744.44 798.443,737.107 813.5,736.5 Z"/></g>
<g><path style="opacity:1" fill="#fcfdfe" d="M 920.5,699.5 C 934.643,698.763 948.31,700.929 961.5,706C 963.594,707.255 964.594,709.088 964.5,711.5C 962.989,718.859 959.655,725.192 954.5,730.5C 947,726.597 939.167,725.597 931,727.5C 930.313,729.92 930.813,732.087 932.5,734C 942.657,738.24 951.99,743.74 960.5,750.5C 967.069,757.599 969.235,765.932 967,775.5C 962.74,791.757 952.24,800.924 935.5,803C 920.671,805.361 906.671,803.028 893.5,796C 887.451,790.605 885.951,784.105 889,776.5C 890.584,772.325 892.918,768.659 896,765.5C 903.327,770.887 911.493,774.22 920.5,775.5C 922.926,775.596 925.093,774.93 927,773.5C 927.72,771.888 927.554,770.388 926.5,769C 918.204,764.852 910.204,760.185 902.5,755C 893.413,745.969 890.246,735.135 893,722.5C 894.738,714.518 899.238,708.684 906.5,705C 911.159,702.842 915.825,701.009 920.5,699.5 Z"/></g>
<g><path style="opacity:1" fill="#fefefe" d="M 1087.5,701.5 C 1099.5,701.5 1111.5,701.5 1123.5,701.5C 1123.67,734.502 1123.5,767.502 1123,800.5C 1111.25,801.488 1099.41,801.821 1087.5,801.5C 1087.5,768.167 1087.5,734.833 1087.5,701.5 Z"/></g>
<g><path style="opacity:1" fill="#fdfefe" d="M 1213.5,700.5 C 1223.17,700.334 1232.84,700.5 1242.5,701C 1244.33,701.273 1245.83,702.107 1247,703.5C 1251.46,718.561 1256.13,733.561 1261,748.5C 1265.53,733.904 1269.87,719.237 1274,704.5C 1274.47,703.069 1275.3,701.903 1276.5,701C 1287.86,700.279 1299.2,700.612 1310.5,702C 1311.31,702.308 1311.97,702.808 1312.5,703.5C 1296.77,747.871 1280.93,792.205 1265,836.5C 1252.23,837.697 1239.39,837.697 1226.5,836.5C 1231.87,822.081 1237.54,807.748 1243.5,793.5C 1232.58,763.159 1221.24,732.992 1209.5,703C 1210.86,702.066 1212.19,701.232 1213.5,700.5 Z"/></g>
<g><path style="opacity:1" fill="#71b0e9" d="M 831.5,729.5 C 832.468,731.607 832.802,733.941 832.5,736.5C 826.167,736.5 819.833,736.5 813.5,736.5C 819.31,735.51 825.31,735.177 831.5,735.5C 831.5,733.5 831.5,731.5 831.5,729.5 Z"/></g>
<g><path style="opacity:1" fill="#1878da" d="M 821.5,756.5 C 825.167,756.5 828.833,756.5 832.5,756.5C 832.828,761.875 832.495,767.208 831.5,772.5C 820.155,776.551 815.655,772.551 818,760.5C 819.376,759.295 820.542,757.962 821.5,756.5 Z"/></g>
<g><path style="opacity:1" fill="#cef3f2" d="M 1017.5,757.5 C 1016.83,771.833 1016.17,786.167 1015.5,800.5C 1015.17,785.818 1015.5,771.152 1016.5,756.5C 1017.11,756.624 1017.44,756.957 1017.5,757.5 Z"/></g>
</svg>
